# xmcd CD database file
# Generated: Mon May 12 09:59:21 2003 by KSCD
# 
# Track frame offsets:
#       150
#       21289
#       40941
#       58922
#       79755
#       105998
#       132989
#       164958
#       188946
#       220602
#       242433
#
# Disc length: 3515 seconds
#
# Revision: 1
# Processed by: cddbd v1.4PL0 Copyright (c) Steve Scherf et al.
# Submitted via: Kscd 1.3.3
#
DISCID=960db90b
DTITLE=Plant, Robert - Dreamland
DYEAR=1900
DGENRE=
TTITLE0=Funny in my mind (I believe I'm fixin' to die)
TTITLE1=Morning dew
TTITLE2=One more cup of coffee
TTITLE3=Last time I saw her
TTITLE4=Song to the siren
TTITLE5=Win my train fare home (if I ever get lucky)
TTITLE6=Darkness
TTITLE7=Red dress
TTITLE8=Hey Joe
TTITLE9=Skip's somg
TTITLE10=Dirt in a hole
EXTD=
EXTT0=
EXTT1=
EXTT2=
EXTT3=
EXTT4=
EXTT5=
EXTT6=
EXTT7=
EXTT8=
EXTT9=
EXTT10=
PLAYORDER=
